<svg version="1.1" xmlns="http://www.w3.org/2000/svg" width="389" height="320" viewBox="0 0 389 320" preserveAspectRatio="xMinYMin meet" style="width: 389px; height: 320px;" id="chart_fc43c654-d7ef-4671-9c25-148367804be7"><style type="text/css">path { fill-rule:evenodd; stroke-linejoin:round }#chart_fc43c654-d7ef-4671-9c25-148367804be7 .drawing-area__background { fill:none }#chart_fc43c654-d7ef-4671-9c25-148367804be7 .layout__background, #chart_fc43c654-d7ef-4671-9c25-148367804be7 .serie__background, #chart_fc43c654-d7ef-4671-9c25-148367804be7 .legend__background { fill:none }#chart_fc43c654-d7ef-4671-9c25-148367804be7 .axis-x-tick-line-inner { stroke:none }#chart_fc43c654-d7ef-4671-9c25-148367804be7 .axis-y-tick-line-inner { stroke:#ddd; stroke-dasharray:2,2 }#chart_fc43c654-d7ef-4671-9c25-148367804be7 .tick-line-zero { stroke:#666 !important; stroke-dasharray:none !important }#chart_fc43c654-d7ef-4671-9c25-148367804be7 .bar{ stroke:none }#chart_fc43c654-d7ef-4671-9c25-148367804be7 text, #chart_fc43c654-d7ef-4671-9c25-148367804be7 tspan { font-size:0.75rem; fill:#303030; line-height:110%; font-family:BundesSansWeb,Arial,sans-serif }#chart_fc43c654-d7ef-4671-9c25-148367804be7 .title, #chart_fc43c654-d7ef-4671-9c25-148367804be7 .title-tspan { font-size:1.5rem; font-weight:700 }#chart_fc43c654-d7ef-4671-9c25-148367804be7 .footer, #chart_fc43c654-d7ef-4671-9c25-148367804be7 .footer-tspan{ font-size:0.625rem } #chart_fc43c654-d7ef-4671-9c25-148367804be7 { min-height:20rem }</style><g class="drawing-area" transform="translate(7,82)"><rect class="drawing-area__background" width="375" height="221"></rect><g class="layout" transform="translate(0,0)"><rect class="layout__background" width="375" height="221"></rect><g class="pie series-0" transform="translate(187.5, 180)"><text class="pie__center-label" dy="1em" style="text-anchor: middle;" transform="translate(0,-7)"><tspan class="pie__center-label-tspan" x="0" y="0" dy="1em" style="text-anchor: middle;">630 Sitze</tspan></text><path class="slice" aria-labelledby="series-0-data-6-label" style="fill: rgb(249, 223, 58);" d="M187.4795639516689,-2.768230570616944A187.5,187.5,0,0,1,187.49062507812474,-1.8749687501562495L56.245687950265825,-0.6964818743666702Z"></path><path class="slice" aria-labelledby="series-0-data-5-label" style="fill: rgb(95, 49, 110);" d="M176.785991998134,-62.47369873183201A187.5,187.5,0,0,1,187.3867083682136,-6.517018254238253L56.15507661160712,-3.266476809122424A56.25,56.25,0,0,0,53.45873528978946,-17.49931773573526Z"></path><path class="slice" aria-labelledby="series-0-data-4-label" style="fill: rgb(0, 75, 118);" d="M157.9248786796499,-101.07414453765047A187.5,187.5,0,0,1,175.5012453002543,-65.99668853859235L52.17398859190979,-21.022307542495597A56.25,56.25,0,0,0,48.072185956917956,-29.208345336966616Z"></path><path class="slice" aria-labelledby="series-0-data-3-label" style="fill: rgb(128, 205, 236);" d="M47.70945270648822,-181.3285915746531A187.5,187.5,0,0,1,155.87194662881024,-104.21221739386095L46.019253906078276,-32.346418193177115A56.25,56.25,0,0,0,15.57842844707364,-54.04974622622577Z"></path><path class="slice" aria-labelledby="series-0-data-2-label" style="fill: rgb(0, 133, 73);" d="M-31.29609584024283,-184.86969569174482A187.5,187.5,0,0,1,44.073581069132686,-182.24645250797775L11.942556809718107,-54.96760715955039A56.25,56.25,0,0,0,-8.091989733299934,-55.664909971688346Z"></path><path class="slice" aria-labelledby="series-0-data-1-label" style="fill: rgb(87, 97, 100);" d="M-154.56683513535674,-106.13832237339842A187.5,187.5,0,0,1,-34.986984255549764,-184.20684279554305L-11.782878148606859,-55.00205707548658A56.25,56.25,0,0,0,-45.61434233063323,-32.91495516849144Z"></path><path class="slice" aria-labelledby="series-0-data-0-label" style="fill: rgb(192, 0, 61);" d="M-187.49062507812474,-1.8749687501562327A187.5,187.5,0,0,1,-156.65854773129658,-103.02596479878784L-47.70605492657313,-29.802597593880755A56.25,56.25,0,0,0,-56.218742356850505,-1.8749687501562673Z"></path></g></g></g><g class="footer-container" transform="translate(0,303)"><text class="footer" transform="translate(7,0)" dy="1em" style="text-anchor: start;"><tspan class="footer-tspan" x="1" y="0" dy="1em" style="text-anchor: start;">© Die Bundeswahlleiterin, Wiesbaden 2025</tspan></text></g><g class="title-container" transform="translate(0,0)"><text class="title" transform="translate(7,0)" dy="1em" style="text-anchor: start;"><tspan class="title-tspan" x="1" y="0" dy="1em" style="text-anchor: start;">Sitzverteilung</tspan></text><text class="title-sub" transform="translate(7,29)" dy="1em" style="text-anchor: start;"><tspan class="title-sub-tspan" x="1" y="0" dy="1em" style="text-anchor: start;">Bundestagswahl 2025, Deutschland</tspan></text><text class="infotext" transform="translate(7,43)" dy="1em" style="text-anchor: start;"><tspan class="infotext-tspan" x="1" y="0" dy="1em" style="text-anchor: start;">Endgültiges Ergebnis</tspan></text></g></svg>